<svg xmlns="http://www.w3.org/2000/svg" viewBox="0 0 315.64 42.09"><defs><style>.cls-1{fill:#1d1d1b;}.cls-2{fill:#010101;}</style></defs><g id="Layer_2" data-name="Layer 2"><g id="Layer_1-2" data-name="Layer 1"><path class="cls-1" d="M57.56,32.06l5.31-1.78a6.38,6.38,0,0,0,6.58,5.31c3.68,0,5.1-1.48,5.1-3.34,0-1.6-1.12-2.75-4.24-3.2l-3.24-.45c-5-.7-8.21-3-8.21-7.8,0-4.17,3.53-7.92,10.3-7.92s9.88,3.35,11,6.95L75,21.65a5.65,5.65,0,0,0-5.79-4.27c-3.35,0-4.43,1.6-4.43,3.19s1.23,2.5,3.35,2.79l3.23.45c5.39.74,9.11,3.27,9.11,8.06,0,4.47-3.35,8.22-11,8.22C62.2,40.09,58.56,36.34,57.56,32.06Z"/><path class="cls-1" d="M83.28,30.17c0-6,4.38-9.82,10-9.82,4.46,0,7.62,2.42,8.84,5.58l-4.87,1.82a4.29,4.29,0,0,0-4.16-3.23c-2.49,0-4.5,1.82-4.5,5.65s2.08,5.72,4.54,5.72c2.15,0,3.49-1.15,4.31-3.53l5,1.78a9.5,9.5,0,0,1-9.18,6C87.52,40.09,83.28,36.15,83.28,30.17Z"/><path class="cls-1" d="M105.73,39.49V20.91h5.16v4.24a6.91,6.91,0,0,1,6.77-4.61,8,8,0,0,1,.85,0V26c-.74-.07-1.41-.11-2-.11-3.79,0-5.47,1.49-5.47,6.13v7.47Z"/><path class="cls-1" d="M120.44,34.74c0-5.21,5.51-6.73,11.68-7.33v-.7c0-1.6-.93-2.57-3.05-2.57-2.42,0-3.64,1.19-4.09,2.94l-4.76-1c.3-2.9,3.38-5.69,8.81-5.69,5.21,0,8.29,2.31,8.29,7.21v6.81c0,.92.11,1.11,1.12,1.11h1.63v4h-4c-2.08,0-3.16-1-3.35-2.71a7.37,7.37,0,0,1-6.35,3.31C123,40.09,120.44,38,120.44,34.74Zm11.68-2.87V30.69c-3.42.4-6.32,1.07-6.32,3.53,0,1.22.81,2,2.41,2C130.26,36.22,132.12,34.89,132.12,31.87Z"/><path class="cls-1" d="M142.86,39.49V20.91H148v2.86a6.84,6.84,0,0,1,6-3.42c4.31,0,6.13,2.64,6.13,6.69V39.49h-5.28V28.19c0-2.45-1.15-3.49-3-3.49-3.68,0-3.72,4-3.72,6v8.8Z"/><path class="cls-1" d="M171.14,26l-4-2.3.93-1.3,2.27-3.16c-1.31.11-2.72.18-4.06.18h-1.56V15.11l5.43.37-2.94-4.16,4-2.31.71,1.27c.59,1.08,1.22,2.27,1.78,3.34.56-1,1.15-2.19,1.67-3.23L176,9l4.09,2.27-3,4.2,5.58-.37V19.5h-1.79c-.93,0-2.71-.15-3.9-.26l2.19,3.12,1,1.37-4.17,2.16-2.34-4.57Z"/><path class="cls-1" d="M189.54,39.49v-26H202c5.76,0,8.73,2.52,8.73,6.28,0,3-1.82,5.16-5.13,6.13,3.76.63,6,3.23,6,6.36,0,4.49-4.05,7.24-9.55,7.24Zm5.65-15.72h5.94c2.42,0,3.94-.82,3.94-2.82s-1.48-2.79-3.94-2.79h-5.94Zm0,11h6c2.64,0,4.53-.85,4.53-3.23s-1.89-3.27-4.53-3.27h-6Z"/><path class="cls-1" d="M215.48,33.44V20.91h5.28v11.3c0,2.49,1.08,3.49,2.79,3.49,2.71,0,3.71-2.56,3.71-5.61V20.91h5.28V39.49h-5.28v-3a6.69,6.69,0,0,1-6.06,3.57C217.67,40.09,215.48,37.49,215.48,33.44Z"/><path class="cls-1" d="M237.44,18.38v-5h5.62v5Zm.19,21.11V20.91h5.28V39.49Z"/><path class="cls-1" d="M248,39.49v-26h5.28v26Z"/><path class="cls-1" d="M257.18,30.2c0-5.87,3.12-9.85,8.07-9.85a7.21,7.21,0,0,1,6,3V13.48h5.28v26h-5.13V37a7.52,7.52,0,0,1-6.17,3.09C260.3,40.09,257.18,36.08,257.18,30.2Zm14.31,0c0-3.94-1.78-5.87-4.39-5.87-2.45,0-4.38,1.52-4.38,5.87s1.93,5.88,4.38,5.88C269.71,36.08,271.49,34.14,271.49,30.2Z"/><path class="cls-1" d="M280.45,30.17c0-5.84,4-9.82,9.4-9.82,6.24,0,9.52,4.91,9,11.12H285.72c.15,3.27,1.9,4.61,4.17,4.61s3.53-1.49,4.31-3.24l4.72,1.82c-1,2.38-3.38,5.43-9,5.43S280.45,36.26,280.45,30.17Zm13.19-2.42c-.22-2.31-1.56-3.61-3.79-3.61s-3.57,1.27-3.94,3.61Z"/><path class="cls-1" d="M302.86,39.49V20.91H308v4.24a6.91,6.91,0,0,1,6.77-4.61,8,8,0,0,1,.85,0V26c-.74-.07-1.41-.11-2-.11-3.79,0-5.46,1.49-5.46,6.13v7.47Z"/><path class="cls-2" d="M24.6,26.17c9.93-.7,17.49-4.29,17.49-8.63,0-1.88-1.42-3.61-3.82-5Z"/><path class="cls-2" d="M21.05,8.77C9.42,8.77,0,12.7,0,17.54c0,2.93,3.46,5.52,8.76,7.11L24.51,8.9c-1.13-.08-2.28-.13-3.46-.13Z"/><path class="cls-2" d="M41.32,4.49A2.63,2.63,0,0,0,37.6.77L12.77,25.6a47.15,47.15,0,0,0,6.77.68Z"/><path class="cls-2" d="M40.92,25.05c-4.7,3.14-12.31,4.77-19.87,4.77S5.9,28.2,1.2,25.06A27,27,0,0,0,7,35.09v5.42a59,59,0,0,0,14,1.58,59.09,59.09,0,0,0,14-1.58V35.08a27.08,27.08,0,0,0,5.84-10Z"/></g></g></svg>